<svg xmlns="http://www.w3.org/2000/svg" width="54" height="43" viewBox="0 0 54 43"><path fill="#fff" d="M53.511 12.685c-.443-.56-1.099-.852-1.761-.852h-9.381c-.49 0-.985.161-1.4.491-.413.331-.681.779-.79 1.259l-4.269 18.607c-.111.481-.376.93-.791 1.261-.414.331-.909.492-1.399.492h-16.347c-.737 0-1.479.239-2.1.735-.621.495-1.021 1.168-1.187 1.889l-.844 3.668c-.148.646-.012 1.353.431 1.913.444.56 1.099.852 1.76.852h28.415c.981 0 1.972-.32 2.8-.981.829-.663 1.361-1.559 1.583-2.519l5.712-24.903c.148-.647.01-1.353-.432-1.912z"/><path fill="#f00" d="M36.628 9.059c.736 0 1.479-.24 2.098-.736.623-.497 1.021-1.167 1.187-1.888l.846-3.669c.148-.646.011-1.353-.432-1.913-.444-.56-1.099-.853-1.762-.853h-29.308c-.737 0-1.479.24-2.1.737s-1.021 1.169-1.186 1.889l-5.913 25.778c-.148.646-.012 1.352.431 1.912.444.56 1.099.852 1.76.852h9.381c.491 0 .986-.16 1.4-.49.414-.331.681-.779.792-1.261l1.705-7.433c.11-.48.377-.929.791-1.259.415-.332.909-.492 1.4-.492h13.372c1.437 0 2.602-1.167 2.602-2.609s-1.165-2.611-2.602-2.611h-13.965l.965-4.204c.11-.48.376-.928.791-1.26.415-.331.909-.49 1.4-.49h16.347z"/></svg>